<svg xmlns="http://www.w3.org/2000/svg" viewBox="0 0 64 64" role="img" aria-label="Money with wings favicon">
  <defs>
    <linearGradient id="bill" x1="0%" y1="0%" x2="100%" y2="100%">
      <stop offset="0%" stop-color="#7ee081" />
      <stop offset="100%" stop-color="#169c47" />
    </linearGradient>
  </defs>

  <g>
    <path d="M17 24C9 16 5 18 4 23c4-1 7 1 10 5-4-1-7 0-10 3 6 1 10 0 14-4" fill="#f8fafc" stroke="#94a3b8" stroke-width="1.5" stroke-linecap="round" stroke-linejoin="round"/>
    <path d="M47 24c8-8 12-6 13-1-4-1-7 1-10 5 4-1 7 0 10 3-6 1-10 0-14-4" fill="#f8fafc" stroke="#94a3b8" stroke-width="1.5" stroke-linecap="round" stroke-linejoin="round"/>
  </g>

  <rect x="14" y="18" width="36" height="28" rx="6" fill="url(#bill)" stroke="#166534" stroke-width="2"/>
  <circle cx="32" cy="32" r="7.5" fill="#dcfce7" stroke="#166534" stroke-width="1.5"/>
  <path d="M32 26v12M28.5 29.5c0-1.6 1.5-2.8 3.5-2.8s3.5 1.2 3.5 2.8-1 2.3-3.5 2.8-3.5 1.2-3.5 2.8 1.5 2.8 3.5 2.8 3.5-1.2 3.5-2.8" fill="none" stroke="#166534" stroke-width="2" stroke-linecap="round"/>
</svg>
